<svg version="1" xmlns="http://www.w3.org/2000/svg" width="266.667" height="266.667" viewBox="0 0 200.000000 200.000000"><path d="M84.5 19.5C58.1 25 37.1 41.4 26 65.4c-12.4 26.7-9.9 56.8 6.8 81.3 11.6 17 32.9 30.8 52.8 34 8.7 1.4 26.3.8 33.9-1.1 26.4-6.9 48.9-27 57.3-51.2 4.1-11.9 5.1-18.3 4.7-30.9-.5-17.1-3.9-28-13-42-12.5-19.1-30.7-31.5-53-36-6.7-1.4-24.1-1.4-31 0zm31 33.5c.3.6-.7 5.4-2.4 10.8-3 9.6-9 29.4-19.7 64.7-3 9.8-5.9 18.4-6.4 18.9-.7.7-1.4.6-2.1-.1-.8-.8 1.2-8.5 7.1-27.9 4.6-14.8 8.8-28.9 9.5-31.4 2.5-8.9 10.4-34.1 11-35 .8-1.3 2.2-1.3 3 0zM78 65.9c-.5.9-8.1 8.8-17 17.5-8.8 8.8-16 16.2-16 16.6 0 .3 7.7 8.3 17.1 17.8C77.5 133.3 80.4 137 76.7 137c-.7 0-9.5-8.3-19.7-18.5L38.5 100l19-18.9c14.4-14.5 19.2-18.8 20.2-18 .8.8 1 1.6.3 2.8zm65 15.6l18.4 18.4-18.4 18.6c-16.6 16.6-22 20.9-22 17.3 0-.6 7.8-8.9 17.3-18.5l17.3-17.4-17.3-17.3c-9.5-9.5-17.3-17.8-17.3-18.4 0-3.6 5.4.7 22 17.3z"/></svg>